# xmcd
#
# Track frame offsets:
#  150
#  18969
#  41746
#  65851
#  82965
#  101764
#
# Disc length: 1455 seconds
#
# Revision: 0
# Processed by: cddbd v1.4PL0 Copyright (c) Steve Scherf et al.
# Submitted via: AltoMP3_Maker 3.0
#
DISCID=4905ad06
DTITLE=Nickel Creek - unknown
DYEAR=1900
DGENRE=
TTITLE0=Ode to a Butterfly
TTITLE1=Lighthouse Tale
TTITLE2=Out of the Woods
TTITLE3=House of Tom Bombadil
TTITLE4=Reasons Why
TTITLE5=dum
EXTD=
EXTT0=
EXTT1=
EXTT2=
EXTT3=
EXTT4=
EXTT5=
PLAYORDER=
